<?xml version="1.0" encoding="UTF-8"?>
<svg width="138px" height="138px" viewBox="0 0 138 138" version="1.1" xmlns="http://www.w3.org/2000/svg" xmlns:xlink="http://www.w3.org/1999/xlink">
    <!-- Generator: Sketch 47.1 (45422) - http://www.bohemiancoding.com/sketch -->
    <title>Group 7</title>
    <desc>Created with Sketch.</desc>
    <defs></defs>
    <g id="Page-1" stroke="none" stroke-width="1" fill="none" fill-rule="evenodd">
        <g id="Desktop-HD" transform="translate(-891.000000, -4470.000000)">
            <g id="body" transform="translate(0.000000, 121.000000)">
                <g id="blok-замера" transform="translate(0.000000, 4174.000000)">
                    <g id="Group-3" transform="translate(858.000000, 169.000000)">
                        <g id="Group-7" transform="translate(33.000000, 6.000000)">
                            <circle id="Oval-Copy-2" fill="#FFFFFF" cx="69" cy="69" r="69"></circle>
                            <g id="calculating" transform="translate(31.000000, 31.000000)" fill-rule="nonzero">
                                <path d="M5.23387911,0 L31.4035711,0 C34.2941368,0 36.6374502,2.34331336 36.6374502,5.23387911 L36.6374502,31.4035711 C36.6374502,34.2941368 34.2941368,36.6374502 31.4035711,36.6374502 L5.23387911,36.6374502 C2.34331336,36.6374502 0,34.2941368 0,31.4035711 L0,5.23387911 C0,2.34331336 2.34331336,0 5.23387911,0 Z" id="Shape" fill="#4A90E2"></path>
                                <path d="M26.1533865,15.7071713 L20.9302789,15.7071713 L20.9302789,10.4840637 C20.9302789,9.04168136 19.7609596,7.87250996 18.3187251,7.87250996 C16.8764906,7.87250996 15.7071713,9.04168136 15.7071713,10.4840637 L15.7071713,15.7071713 L10.4840637,15.7071713 C9.04182928,15.7071713 7.87250996,16.8763427 7.87250996,18.3187251 C7.87250996,19.7609596 9.04182928,20.9302789 10.4840637,20.9302789 L15.7071713,20.9302789 L15.7071713,26.1533865 C15.7071713,27.5956209 16.8764906,28.7649402 18.3187251,28.7649402 C19.7609596,28.7649402 20.9302789,27.5956209 20.9302789,26.1533865 L20.9302789,20.9302789 L26.1533865,20.9302789 C27.5956209,20.9302789 28.7649402,19.7609596 28.7649402,18.3187251 C28.7649402,16.8763427 27.5956209,15.7071713 26.1533865,15.7071713 Z" id="Shape" fill="#FFFFFF"></path>
                                <path d="M5.23387911,39.3625498 L31.4035711,39.3625498 C34.2941368,39.3625498 36.6374502,41.7058632 36.6374502,44.5964289 L36.6374502,70.7661209 C36.6374502,73.6566866 34.2941368,76 31.4035711,76 L5.23387911,76 C2.34331336,76 0,73.6566866 0,70.7661209 L0,44.5964289 C0,41.7058632 2.34331336,39.3625498 5.23387911,39.3625498 Z" id="Shape" fill="#4A90E2"></path>
                                <path d="M22.0227905,57.6814047 L25.726856,53.9773477 C26.7497465,52.9544594 26.7497465,51.2961788 25.726856,50.2732906 C24.7039654,49.2505507 23.0456811,49.2504024 22.0227905,50.2732906 L18.3187251,53.9771993 L14.6146597,50.2731423 C13.5917691,49.250254 11.9334848,49.250254 10.9105942,50.2731423 C9.88770366,51.2960305 9.88770366,52.9543111 10.9105942,53.9771993 L14.6146597,57.6814047 L10.9105942,61.3854618 C9.88770366,62.4082016 9.88770366,64.0666306 10.9105942,65.0895188 C11.9334848,66.1122587 13.5917691,66.1122587 14.6146597,65.0895188 L18.3187251,61.3854618 L22.0227905,65.0895188 C23.0456811,66.1122587 24.7039654,66.1122587 25.726856,65.0895188 C26.7497465,64.0666306 26.7497465,62.40835 25.726856,61.3854618 L22.0227905,57.6814047 Z" id="Shape" fill="#FFFFFF"></path>
                                <path d="M44.5964289,0 L70.7661209,0 C73.6566866,0 76,2.34331336 76,5.23387911 L76,31.4035711 C76,34.2941368 73.6566866,36.6374502 70.7661209,36.6374502 L44.5964289,36.6374502 C41.7058632,36.6374502 39.3625498,34.2941368 39.3625498,31.4035711 L39.3625498,5.23387911 C39.3625498,2.34331336 41.7058632,0 44.5964289,0 Z" id="Shape" fill="#4A90E2"></path>
                                <path d="M49.8465951,15.7450199 L65.5159547,15.7450199 C66.9583269,15.7450199 68.12749,16.9311358 68.12749,18.3944223 L68.12749,18.3944223 C68.12749,19.8577088 66.9583269,21.0438247 65.5159547,21.0438247 L49.8465951,21.0438247 C48.4042229,21.0438247 47.2350598,19.8577088 47.2350598,18.3944223 L47.2350598,18.3944223 C47.2350598,16.9311358 48.4042229,15.7450199 49.8465951,15.7450199 Z" id="Shape" fill="#FFFFFF"></path>
                                <path d="M44.5964289,39.3625498 L70.7661209,39.3625498 C73.6566866,39.3625498 76,41.7058632 76,44.5964289 L76,70.7661209 C76,73.6566866 73.6566866,76 70.7661209,76 L44.5964289,76 C41.7058632,76 39.3625498,73.6566866 39.3625498,70.7661209 L39.3625498,44.5964289 C39.3625498,41.7058632 41.7058632,39.3625498 44.5964289,39.3625498 Z" id="Shape" fill="#034F83"></path>
                                <g id="Group" transform="translate(47.083665, 49.657371)" fill="#FFFFFF">
                                    <path d="M2.73433149,0.0665569498 L18.4352459,0.0665569498 C19.8805227,0.0665569498 21.0520402,1.24081171 21.0520402,2.68946532 L21.0520402,2.68946532 C21.0520402,4.13811893 19.8805227,5.31237368 18.4352459,5.31237368 L2.73433149,5.31237368 C1.28905469,5.31237368 0.117537124,4.13811893 0.117537124,2.68946532 L0.117537124,2.68946532 C0.117537124,1.24081171 1.28905469,0.0665569498 2.73433149,0.0665569498 Z" id="Shape"></path>
                                    <path d="M2.73433149,10.558339 L18.4352459,10.558339 C19.8805227,10.558339 21.0520402,11.7325937 21.0520402,13.1812473 L21.0520402,13.1812473 C21.0520402,14.629901 19.8805227,15.8041557 18.4352459,15.8041557 L2.73433149,15.8041557 C1.28905469,15.8041557 0.117537124,14.629901 0.117537124,13.1812473 L0.117537124,13.1812473 C0.117537124,11.7325937 1.28905469,10.558339 2.73433149,10.558339 Z" id="Shape"></path>
                                </g>
                            </g>
                        </g>
                    </g>
                </g>
            </g>
        </g>
    </g>
</svg>