<?xml version="1.0" encoding="UTF-8"?>
<svg width="138px" height="138px" viewBox="0 0 138 138" version="1.1" xmlns="http://www.w3.org/2000/svg" xmlns:xlink="http://www.w3.org/1999/xlink">
    <!-- Generator: Sketch 47.1 (45422) - http://www.bohemiancoding.com/sketch -->
    <title>icon 5</title>
    <desc>Created with Sketch.</desc>
    <defs></defs>
    <g id="Page-1" stroke="none" stroke-width="1" fill="none" fill-rule="evenodd">
        <g id="Desktop-HD" transform="translate(-1355.000000, -4471.000000)">
            <g id="body" transform="translate(0.000000, 121.000000)">
                <g id="blok-замера" transform="translate(0.000000, 4174.000000)">
                    <g id="Group-5" transform="translate(1322.000000, 169.000000)">
                        <g id="icon-5" transform="translate(33.000000, 7.000000)">
                            <circle id="Oval-Copy-4" fill="#FFFFFF" cx="69" cy="69" r="69"></circle>
                            <g id="toolbox" transform="translate(30.000000, 31.000000)" fill-rule="nonzero">
                                <g id="Group" transform="translate(1.187500, 1.187500)">
                                    <g transform="translate(7.570312, 0.000000)" id="Shape" fill="#4A90E2">
                                        <path d="M25.4421875,0.0791171875 L33.0421875,0.0791171875 C34.4413594,0.0791171875 35.5755703,1.21332812 35.5755703,2.6125 L35.5755703,5.14588281 L22.9089531,5.14588281 L22.9089531,2.6125 C22.9088047,1.21332812 24.0430156,0.0791171875 25.4421875,0.0791171875 Z"></path>
                                        <path d="M2.6421875,0.0791171875 L5.17557031,0.0791171875 C6.57474219,0.0791171875 7.70895312,1.21332812 7.70895312,2.6125 L7.70895312,5.14588281 L0.108953125,5.14588281 L0.108953125,2.6125 C0.108804687,1.21332812 1.24301562,0.0791171875 2.6421875,0.0791171875 Z"></path>
                                        <path d="M53.3088047,0.0791171875 L55.8421875,0.0791171875 C57.2413594,0.0791171875 58.3755703,1.21332812 58.3755703,2.6125 L58.3755703,5.14588281 L50.7755703,5.14588281 L50.7755703,2.6125 C50.7755703,1.21332812 51.9097812,0.0791171875 53.3088047,0.0791171875 Z"></path>
                                    </g>
                                    <path d="M71.0125,7.67911719 L71.0125,39.3457344 L67.2125,39.3457344 L67.2125,7.67911719 C67.2084922,6.28172656 66.0766562,5.14989062 64.6791172,5.14573437 L68.4791172,5.14573437 C69.8766563,5.14989063 71.0084922,6.28172656 71.0125,7.67911719 Z" id="Shape" fill="#4A90E2"></path>
                                    <path d="M67.2125,7.67911719 L67.2125,39.3457344 L65.9458828,39.3457344 L65.9458828,10.2125 L7.67911719,10.2125 L7.67911719,39.3458828 L2.6125,39.3458828 L2.6125,7.67911719 C2.61665625,6.28172656 3.74834375,5.14989062 5.14588281,5.14573437 L64.6792656,5.14573437 C66.0766562,5.14989063 67.2084922,6.28172656 67.2125,7.67911719 Z" id="Shape" fill="#4A90E2"></path>
                                    <path d="M45.3371172,36.8125 L51.0371172,30.0485 L51.0374141,30.0421172 C54.1608359,31.4038828 57.8077969,30.5502188 60.0024453,27.9436563 C61.2228984,26.5075234 61.8651875,24.6686797 61.8043281,22.7850078 L56.6309844,25.7632578 C55.5744063,26.3703672 54.2257031,26.0063984 53.618,24.9501172 L52.3444063,22.7394375 C51.7426406,21.6821172 52.1055703,20.3374219 53.1575469,19.7264531 L58.5032266,16.6632969 C55.8519844,14.8151016 52.3282266,14.8214844 49.6838125,16.6793281 C47.0393984,18.5371719 45.8383906,21.85 46.6781016,24.9708984 L46.6798828,24.9691172 L36.6985,36.8125 L45.3371172,36.8125 Z" id="Shape" fill="#607D8B"></path>
                                    <path d="M30.4791172,36.8125 L21.6757344,22.7271172 C20.7163828,21.1930156 19.0114297,20.28725 17.2031641,20.3510781 C15.3948984,20.4149063 13.7580781,21.4385312 12.9091641,23.0364609 C12.06025,24.6343906 12.1283828,26.5637813 13.0877344,28.0978828 L18.5345,36.8125 L30.4791172,36.8125 Z" id="Shape" fill="#FFEB3A"></path>
                                    <path d="M2.6125,36.8125 L71.0125,36.8125 C72.4116719,36.8125 73.5458828,37.9467109 73.5458828,39.3458828 L73.5458828,71.0125 C73.5458828,72.4116719 72.4116719,73.5458828 71.0125,73.5458828 L2.6125,73.5458828 C1.21332812,73.5458828 0.0791171875,72.4116719 0.0791171875,71.0125 L0.0791171875,39.3458828 C0.0791171875,37.9467109 1.21332812,36.8125 2.6125,36.8125 Z" id="Shape" fill="#4A90E2"></path>
                                    <path d="M2.6125,36.8125 L67.2125,36.8125 C68.6116719,36.8125 69.7458828,37.9467109 69.7458828,39.3458828 L69.7458828,71.0125 C69.7458828,72.4116719 68.6116719,73.5458828 67.2125,73.5458828 L2.6125,73.5458828 C1.21332812,73.5458828 0.0791171875,72.4116719 0.0791171875,71.0125 L0.0791171875,39.3458828 C0.0791171875,37.9467109 1.21332812,36.8125 2.6125,36.8125 Z" id="Shape" fill="#4A90E2"></path>
                                    <rect id="Rectangle-path" fill="#F5F5F5" x="7.67911719" y="45.6791172" width="7.6" height="5.06661719"></rect>
                                    <g transform="translate(7.570312, 36.812500)" fill="#CFD8DC">
                                        <rect id="Rectangle-path" x="0.108804687" y="0" width="7.6" height="8.86661719"></rect>
                                        <path d="M7.70880469,13.9333828 L7.70880469,20.2667656 C7.70464844,21.6641563 6.5728125,22.7959922 5.17542188,22.8001484 L2.6421875,22.8001484 C1.24479687,22.7959922 0.112960937,21.6641563 0.108804687,20.2667656 L0.108804687,13.9333828 L7.70880469,13.9333828 L7.70880469,13.9333828 Z" id="Shape"></path>
                                        <rect id="Rectangle-path" x="50.7755703" y="0" width="7.6" height="8.86661719"></rect>
                                        <path d="M58.3755703,13.9333828 L58.3755703,20.2667656 C58.3714141,21.6641563 57.2397266,22.7959922 55.8421875,22.8001484 L53.3088047,22.8001484 C51.9114141,22.7959922 50.7795781,21.6641563 50.7754219,20.2667656 L50.7754219,13.9333828 L58.3755703,13.9333828 L58.3755703,13.9333828 Z" id="Shape"></path>
                                    </g>
                                    <rect id="Rectangle-path" fill="#F5F5F5" x="58.3458828" y="45.6791172" width="7.6" height="5.06661719"></rect>
                                    <path d="M30.4791172,36.8125 L43.1457344,36.8125 L43.1457344,48.2125 C43.1457344,49.6116719 42.0115234,50.7458828 40.6123516,50.7458828 L33.0123516,50.7458828 C31.6131797,50.7458828 30.4789687,49.6116719 30.4789687,48.2125 L30.4789687,36.8125 L30.4791172,36.8125 Z" id="Shape" fill="#607D8B"></path>
                                    <path d="M30.4791172,36.8125 L39.3457344,36.8125 L39.3457344,48.2125 C39.3457344,49.6116719 38.2115234,50.7458828 36.8123516,50.7458828 L33.0123516,50.7458828 C31.6131797,50.7458828 30.4789687,49.6116719 30.4789687,48.2125 L30.4789687,36.8125 L30.4791172,36.8125 Z" id="Shape" fill="#CFD8DC"></path>
                                </g>
                                <g id="Group" fill="#034F83">
                                    <path d="M72.2,76 L3.8,76 C1.70228125,75.9977734 0.0022265625,74.2977188 0,72.2 L0,40.5333828 C0.0022265625,38.4356641 1.70228125,36.7356094 3.8,36.7333828 L72.2,36.7333828 C74.2977188,36.7356094 75.9977734,38.4356641 76,40.5333828 L76,72.2 C75.9977734,74.2977188 74.2977188,75.9977734 72.2,76 L72.2,76 Z M3.8,39.2666172 C3.10071094,39.2673594 2.53397656,39.8339453 2.53338281,40.5332344 L2.53338281,72.2 C2.534125,72.8992891 3.10071094,73.4660234 3.8,73.4666172 L72.2,73.4666172 C72.8992891,73.465875 73.4660234,72.8992891 73.4666172,72.2 L73.4666172,40.5333828 C73.465875,39.8340937 72.8992891,39.2673594 72.2,39.2667656 L3.8,39.2667656 L3.8,39.2666172 Z" id="Shape"></path>
                                    <path d="M72.2,39.2666172 L3.8,39.2666172 C3.46408594,39.2667656 3.14182812,39.1333203 2.90417969,38.8956719 C2.66667969,38.6581719 2.53323438,38.3359141 2.53323438,37.9998516 L2.53323438,8.86661719 C2.53546094,6.76889844 4.23551562,5.06884375 6.33323437,5.06661719 L69.6666172,5.06661719 C71.7643359,5.06884375 73.4643906,6.76889844 73.4666172,8.86661719 L73.4666172,38 C73.4667656,38.3359141 73.3333203,38.6581719 73.0956719,38.8958203 C72.8581719,39.1333203 72.5359141,39.2667656 72.2,39.2666172 Z M5.06661719,36.7333828 L70.9332344,36.7333828 L70.9332344,8.86661719 C70.9324922,8.16732812 70.3659062,7.60059375 69.6666172,7.6 L6.33338281,7.6 C5.63409375,7.60074219 5.06735938,8.16732812 5.06676563,8.86661719 L5.06676563,36.7333828 L5.06661719,36.7333828 Z" id="Shape"></path>
                                    <path d="M67.1333828,39.2666172 L8.86661719,39.2666172 C8.53070313,39.2667656 8.20844531,39.1333203 7.97079687,38.8956719 C7.73314844,38.6580234 7.59985156,38.3359141 7.6,38 L7.6,11.4 C7.59985156,11.0640859 7.73329688,10.7418281 7.97094531,10.5041797 C8.20844531,10.2666797 8.53070313,10.1332344 8.86676563,10.1332344 L67.1333828,10.1332344 C67.4692969,10.1330859 67.7915547,10.2665313 68.0292031,10.5041797 C68.2667031,10.7416797 68.4001484,11.0639375 68.4001484,11.4 L68.4001484,38 C68.4002969,38.3359141 68.2668516,38.6581719 68.0292031,38.8958203 C67.7915547,39.1333203 67.4692969,39.2667656 67.1333828,39.2666172 L67.1333828,39.2666172 Z M10.1333828,36.7333828 L65.8667656,36.7333828 L65.8667656,12.6666172 L10.1333828,12.6666172 L10.1333828,36.7333828 Z" id="Shape"></path>
                                    <path d="M44.3333828,7.6 L31.6667656,7.6 C31.3308516,7.60014844 31.0085937,7.46670312 30.7709453,7.22905469 C30.5334453,6.99155469 30.4,6.66929687 30.4,6.33323437 L30.4,3.8 C30.4022266,1.70228125 32.1022812,0.0022265625 34.2,0 L41.8,0 C43.8977187,0.0022265625 45.5977734,1.70228125 45.6,3.8 L45.6,6.33338281 C45.6001484,6.66929687 45.4667031,6.99155469 45.2290547,7.22920312 C44.9915547,7.46670312 44.6692969,7.60014844 44.3333828,7.6 Z M32.9333828,5.06661719 L43.0667656,5.06661719 L43.0667656,3.8 C43.0660234,3.10071094 42.4994375,2.53397656 41.8001484,2.53338281 L34.2001484,2.53338281 C33.5008594,2.534125 32.934125,3.10071094 32.9335313,3.8 L32.9335313,5.06661719 L32.9333828,5.06661719 Z" id="Shape"></path>
                                    <path d="M16.4666172,7.6 L8.86661719,7.6 C8.53070312,7.60014844 8.20844531,7.46670312 7.97079687,7.22905469 C7.73314844,6.99140625 7.59985156,6.66929687 7.59985156,6.33323437 L7.59985156,3.8 C7.60222656,1.70228125 9.30228125,0.0022265625 11.4,0 L13.9333828,0 C16.0311016,0.0022265625 17.7311562,1.70228125 17.7333828,3.8 L17.7333828,6.33338281 C17.7335312,6.66929687 17.6000859,6.99155469 17.3624375,7.22920312 C17.1249375,7.46670312 16.8026797,7.60014844 16.4666172,7.6 Z M10.1333828,5.06661719 L15.2,5.06661719 L15.2,3.8 C15.1992578,3.10071094 14.6326719,2.53397656 13.9333828,2.53338281 L11.4,2.53338281 C10.7007109,2.534125 10.1339766,3.10071094 10.1333828,3.8 L10.1333828,5.06661719 Z" id="Shape"></path>
                                    <path d="M67.1333828,7.6 L59.5333828,7.6 C59.1974688,7.60014844 58.8752109,7.46670312 58.6375625,7.22905469 C58.4000625,6.99155469 58.2666172,6.66929687 58.2666172,6.33323437 L58.2666172,3.8 C58.2688438,1.70228125 59.9688984,0.0022265625 62.0666172,0 L64.6,0 C66.6977188,0.0022265625 68.3977734,1.70228125 68.4,3.8 L68.4,6.33338281 C68.4001484,6.66929687 68.2667031,6.99155469 68.0290547,7.22920312 C67.7915547,7.46670312 67.4692969,7.60014844 67.1333828,7.6 Z M60.8,5.06661719 L65.8666172,5.06661719 L65.8666172,3.8 C65.865875,3.10071094 65.2992891,2.53397656 64.6,2.53338281 L62.0666172,2.53338281 C61.3673281,2.534125 60.8005938,3.10071094 60.8,3.8 L60.8,5.06661719 L60.8,5.06661719 Z" id="Shape"></path>
                                    <path d="M13.9333828,62.0666172 L11.4,62.0666172 C9.30228125,62.0643906 7.60222656,60.3643359 7.6,58.2666172 L7.6,38 C7.59985156,37.6640859 7.73329688,37.3418281 7.97094531,37.1041797 C8.20844531,36.8666797 8.53070313,36.7332344 8.86676562,36.7332344 L16.4667656,36.7332344 C16.8026797,36.7330859 17.1249375,36.8665313 17.3625859,37.1041797 C17.6000859,37.3416797 17.7335313,37.6639375 17.7335313,38 L17.7335313,58.2666172 C17.7310078,60.3643359 16.0311016,62.0643906 13.9333828,62.0666172 Z M10.1333828,39.2666172 L10.1333828,58.2666172 C10.134125,58.9659063 10.7007109,59.5326406 11.4,59.5332344 L13.9333828,59.5332344 C14.6326719,59.5324922 15.1994062,58.9659063 15.2,58.2666172 L15.2,39.2666172 L10.1333828,39.2666172 Z" id="Shape"></path>
                                    <path d="M16.4666172,53.2 L8.86661719,53.2 C8.16703125,53.2 7.6,52.6328203 7.6,51.9333828 C7.6,51.2337969 8.16717969,50.6667656 8.86661719,50.6667656 L16.4666172,50.6667656 C17.1662031,50.6667656 17.7332344,51.2339453 17.7332344,51.9333828 C17.7333828,52.6328203 17.1662031,53.2 16.4666172,53.2 Z" id="Shape"></path>
                                    <path d="M16.4666172,48.1333828 L8.86661719,48.1333828 C8.16703125,48.1333828 7.6,47.5662031 7.6,46.8667656 C7.6,46.1671797 8.16717969,45.6001484 8.86661719,45.6001484 L16.4666172,45.6001484 C17.1662031,45.6001484 17.7332344,46.1673281 17.7332344,46.8667656 C17.7333828,47.5662031 17.1662031,48.1333828 16.4666172,48.1333828 Z" id="Shape"></path>
                                    <path d="M64.6,62.0666172 L62.0666172,62.0666172 C59.9688984,62.0643906 58.2688437,60.3643359 58.2666172,58.2666172 L58.2666172,38 C58.2664687,37.6640859 58.3999141,37.3418281 58.6375625,37.1041797 C58.8750625,36.8666797 59.1973203,36.7332344 59.5333828,36.7332344 L67.1333828,36.7332344 C67.4692969,36.7330859 67.7915547,36.8665313 68.0292031,37.1041797 C68.2667031,37.3416797 68.4001484,37.6639375 68.4001484,38 L68.4001484,58.2666172 C68.3977734,60.3643359 66.6977187,62.0643906 64.6,62.0666172 Z M60.8,39.2666172 L60.8,58.2666172 C60.8007422,58.9659063 61.3673281,59.5326406 62.0666172,59.5332344 L64.6,59.5332344 C65.2992891,59.5324922 65.8660234,58.9659063 65.8666172,58.2666172 L65.8666172,39.2666172 L60.8,39.2666172 Z" id="Shape"></path>
                                    <path d="M67.1333828,53.2 L59.5333828,53.2 C58.8337969,53.2 58.2667656,52.6328203 58.2667656,51.9333828 C58.2667656,51.2337969 58.8337969,50.6667656 59.5333828,50.6667656 L67.1333828,50.6667656 C67.8329688,50.6667656 68.4,51.2339453 68.4,51.9333828 C68.4,52.6328203 67.8329688,53.2 67.1333828,53.2 Z" id="Shape"></path>
                                    <path d="M67.1333828,48.1333828 L59.5333828,48.1333828 C58.8337969,48.1333828 58.2667656,47.5662031 58.2667656,46.8667656 C58.2667656,46.1671797 58.8337969,45.6001484 59.5333828,45.6001484 L67.1333828,45.6001484 C67.8329688,45.6001484 68.4,46.1673281 68.4,46.8667656 C68.4,47.5662031 67.8329688,48.1333828 67.1333828,48.1333828 Z" id="Shape"></path>
                                    <path d="M41.8,53.2 L34.2,53.2 C32.1022813,53.1977734 30.4022266,51.4977187 30.4,49.4 L30.4,38 C30.3998516,37.6640859 30.5332969,37.3418281 30.7709453,37.1041797 C31.0084453,36.8666797 31.3307031,36.7332344 31.6667656,36.7332344 L44.3333828,36.7332344 C44.6692969,36.7330859 44.9915547,36.8665313 45.2292031,37.1041797 C45.4667031,37.3416797 45.6001484,37.6639375 45.6001484,38 L45.6001484,49.4 C45.5977734,51.4977188 43.8977188,53.1977734 41.8,53.2 Z M32.9333828,39.2666172 L32.9333828,49.4 C32.934125,50.0992891 33.5007109,50.6660234 34.2,50.6666172 L41.8,50.6666172 C42.4992891,50.665875 43.0660234,50.0992891 43.0666172,49.4 L43.0666172,39.2666172 L32.9333828,39.2666172 Z" id="Shape"></path>
                                    <path d="M55.3257734,33.1498047 C54.0837969,33.1483203 52.855625,32.8901875 51.7181484,32.3915859 C51.0766016,32.1117812 50.7834375,31.3649922 51.0630938,30.7234453 C51.3428984,30.0818984 52.0896875,29.7887344 52.7312344,30.0683906 C54.3575156,30.7740625 56.2027422,30.7786641 57.8325859,30.0813047 C59.4624297,29.3837969 60.7330547,28.0459297 61.3455078,26.3822422 L58.4503828,28.0484531 C56.7863984,29.0036484 54.6631484,28.4300859 53.7066172,26.7669922 L52.4343594,24.5589844 C51.4908906,22.8970781 52.0580703,20.7855547 53.7072109,19.8201172 L56.9728359,17.9486172 C54.7522109,17.3518984 52.3819609,17.9855781 50.7555312,19.6109687 C49.1289531,21.2362109 48.4934922,23.6060156 49.0884297,25.8269375 C49.2708594,26.5020312 48.8718594,27.1971641 48.1969141,27.3801875 C47.5219687,27.5632109 46.8263906,27.1646562 46.6429219,26.4900078 C45.6636797,22.8543281 47.0624062,18.9945078 50.143375,16.8301406 C53.2243437,14.6657734 57.3298281,14.6589453 60.4179219,16.8132187 C60.7731328,17.0618516 60.9763437,17.4749531 60.9566016,17.9080937 C60.9368594,18.3412344 60.6969844,18.7341484 60.3206953,18.9495312 L54.9751641,22.0123906 C54.5301484,22.2760156 54.3774062,22.8469062 54.6312344,23.2975625 L55.9034922,25.5055703 C56.0277344,25.7224375 56.2331719,25.8808203 56.4745312,25.9458359 C56.7158906,26.0108516 56.9729844,25.9770078 57.1894062,25.8520234 L62.3599297,22.8758516 C62.7452734,22.6536406 63.2189375,22.6499297 63.6076953,22.8660547 C63.9964531,23.0821797 64.2433047,23.486375 64.2581484,23.9309453 C64.3233125,26.3457266 63.4125,28.6848047 61.7315937,30.4197422 C60.0506875,32.1546797 57.7412969,33.1386719 55.3257734,33.1498047 L55.3257734,33.1498047 Z" id="Shape"></path>
                                    <path d="M37.8855547,39.2666172 C37.3928906,39.2664688 36.9450547,38.9805781 36.7373906,38.5337813 C36.5297266,38.0869844 36.6000859,37.5603281 36.9175938,37.1835938 L46.8988281,25.3408047 C47.3497813,24.8058359 48.1488203,24.7377031 48.6837891,25.1886563 C49.2187578,25.6396094 49.2868906,26.4386484 48.8359375,26.9736172 L38.8547031,38.8164062 C38.6140859,39.1022969 38.2593203,39.2670625 37.8855547,39.2666172 L37.8855547,39.2666172 Z" id="Shape"></path>
                                    <path d="M46.5240234,39.2666172 C46.0313594,39.2664688 45.5835234,38.9805781 45.3758594,38.5337812 C45.1681953,38.0869844 45.2385547,37.5603281 45.5560625,37.1835938 L51.2560625,30.4197422 C51.7070156,29.8847734 52.5060547,29.8166406 53.0410234,30.2675937 C53.5759922,30.7185469 53.644125,31.5175859 53.1931719,32.0525547 L47.4931719,38.8164062 C47.2525547,39.1022969 46.8977891,39.2670625 46.5240234,39.2666172 L46.5240234,39.2666172 Z" id="Shape"></path>
                                    <path d="M20.1541016,39.2666172 C19.7168047,39.2675078 19.3102344,39.0424766 19.0785234,38.6716797 L13.6314609,29.9572109 C12.428375,28.0393984 12.3407969,25.6253594 13.4016797,23.6254609 C14.4625625,21.6255625 16.5104062,20.34425 18.7728906,20.2646875 C21.035375,20.1852734 23.168125,21.3197812 24.3666094,23.2404141 L33.1714766,37.3283203 C33.5424219,37.921625 33.3622188,38.7032969 32.7689141,39.0742422 C32.1756094,39.4451875 31.3939375,39.2649844 31.0228438,38.6716797 L22.2199063,24.5861484 C21.0846563,22.8382969 18.7676953,22.3057031 16.9831797,23.3826172 C15.2087578,24.4966406 14.6705234,26.8363125 15.7796484,28.6138516 L21.2273047,37.3283203 C21.4710391,37.7187109 21.4841016,38.2106328 21.2611484,38.6131953 C21.0381953,39.0157578 20.6144063,39.2660234 20.1541016,39.2666172 Z" id="Shape"></path>
                                    <path d="M26.1324219,39.2666172 C25.6954219,39.2673594 25.2888516,39.0424766 25.0574375,38.6716797 L19.5095859,29.8050625 C19.2679297,29.4213516 19.2498203,28.9378906 19.4620859,28.5372578 C19.6743516,28.136625 20.0846328,27.8799766 20.5376641,27.8643906 C20.9908437,27.8488047 21.41775,28.0766562 21.6570312,28.4617031 L27.2048828,37.3283203 C27.4489141,37.7185625 27.4619766,38.2104844 27.2391719,38.6131953 C27.0163672,39.0159062 26.5927266,39.2660234 26.1324219,39.2666172 L26.1324219,39.2666172 Z" id="Shape"></path>
                                </g>
                            </g>
                        </g>
                    </g>
                </g>
            </g>
        </g>
    </g>
</svg>