<?xml version="1.0" encoding="UTF-8"?>
<svg width="138px" height="138px" viewBox="0 0 138 138" version="1.1" xmlns="http://www.w3.org/2000/svg" xmlns:xlink="http://www.w3.org/1999/xlink">
    <!-- Generator: Sketch 47.1 (45422) - http://www.bohemiancoding.com/sketch -->
    <title>icon 2</title>
    <desc>Created with Sketch.</desc>
    <defs></defs>
    <g id="Page-1" stroke="none" stroke-width="1" fill="none" fill-rule="evenodd">
        <g id="Desktop-HD" transform="translate(-659.000000, -4471.000000)">
            <g id="body" transform="translate(0.000000, 121.000000)">
                <g id="blok-замера" transform="translate(0.000000, 4174.000000)">
                    <g id="Group-2" transform="translate(626.000000, 169.000000)">
                        <g id="icon-2" transform="translate(33.000000, 7.000000)">
                            <circle id="Oval-Copy" fill="#FFFFFF" cx="69" cy="69" r="69"></circle>
                            <g id="ruler" transform="translate(31.000000, 33.000000)" fill-rule="nonzero">
                                <path d="M0,67.2000874 L0,52.8000583 C0,51.7714952 0.786273437,51 1.83453906,51 L73.3793359,51 C74.8206641,51 76,52.1571699 76,53.5714078 L76,66.4285922 C76,67.8428301 74.8206641,69 73.3793359,69 L1.83453906,69 C0.786273437,69 0,68.2286505 0,67.2000874" id="Shape" fill="#4A90E2"></path>
                                <g id="Group" transform="translate(2.000000, 18.000000)" fill="#034F83">
                                    <path d="M7.89817857,46.0630413 C9.97194048,46.0630413 11.7865556,44.3558678 11.7865556,42.1234215 C11.7865556,40.0223306 10.1015873,38.1838017 7.89817857,38.1838017 C5.69476984,38.1838017 4.00980159,39.8909752 4.00980159,42.1234215 C4.00980159,44.2245124 5.82441667,46.0630413 7.89817857,46.0630413" id="Shape"></path>
                                    <path d="M27.3399167,32.9310744 L27.3399167,38.1838017 C27.3399167,38.9717851 27.8583571,39.4970579 28.6360913,39.4970579 C29.4138254,39.4970579 29.9322659,38.9717851 29.9322659,38.1838017 L29.9322659,32.9310744 L27.3399167,32.9310744 Z" id="Shape"></path>
                                    <path d="M22.1555119,32.9310744 L22.1555119,40.810314 C22.1555119,41.5982975 22.6739524,42.1235702 23.4516865,42.1235702 C24.2294206,42.1235702 24.7478611,41.5982975 24.7478611,40.810314 L24.7478611,32.9310744 L22.1555119,32.9310744 Z" id="Shape"></path>
                                    <path d="M32.5243214,32.9310744 L32.5243214,40.810314 C32.5243214,41.5982975 33.0427619,42.1235702 33.820496,42.1235702 C34.5982302,42.1235702 35.1166706,41.5982975 35.1166706,40.810314 L35.1166706,32.9310744 L32.5243214,32.9310744 Z" id="Shape"></path>
                                    <path d="M16.9709603,32.9310744 L16.9709603,38.1838017 C16.9709603,38.9717851 17.4894008,39.4970579 18.2671349,39.4970579 C19.044869,39.4970579 19.5633095,38.9717851 19.5633095,38.1838017 L19.5633095,32.9310744 L16.9709603,32.9310744 Z" id="Shape"></path>
                                    <path d="M0.121571429,0.101157025 L60.7796944,53.2855041 C61.9462222,54.3360496 63.8903373,54.2046942 64.7977183,52.8915868 L73.4817063,42.3859835 C74.1297937,41.598 74.0001468,40.5474545 73.2224127,39.8909752 L26.5621825,0.101157025 L0.121571429,0.101157025 Z" id="Shape"></path>
                                </g>
                                <path d="M0,16.2000874 L0,1.80005826 C0,0.771495153 0.786273437,0 1.83453906,0 L73.3793359,0 C74.8206641,0 76,1.15716991 76,2.57140776 L76,15.4285922 C76,16.8428301 74.8206641,18 73.3793359,18 L1.83453906,18 C0.786273437,18 0,17.2286505 0,16.2000874" id="Shape" fill="#4A90E2"></path>
                                <path d="M9,13 C11.1332931,13 13,11.2666289 13,8.99992448 C13,6.73322005 11.2666616,5 9,5 C6.73333837,5 5,6.86659115 5,8.99992448 C5,11.1332578 6.86670694,13 9,13" id="Shape" fill="#034F83"></path>
                                <path d="M66.5665805,56.9475807 C64.8293761,55.4877835 62.4239929,55.7531328 60.9541206,57.4784297 C59.4842483,59.2037265 59.751429,61.5926222 61.4886334,63.0524193 C63.2258378,64.5122165 65.631221,64.2468672 67.1010933,62.5215703 C68.4372995,60.7962735 68.3037849,58.274628 66.5665805,56.9475807" id="Shape" fill="#4A90E2"></path>
                                <g id="Group" transform="translate(19.000000, 0.000000)" fill="#034F83">
                                    <path d="M46.2924955,0.0151612903 L46.2924955,8.55806452 C46.2924955,9.41241935 46.805905,9.98193548 47.576092,9.98193548 C48.3462789,9.98193548 48.8596884,9.41241935 48.8596884,8.55806452 L48.8596884,0.0151612903 L46.2924955,0.0151612903 Z" id="Shape"></path>
                                    <path d="M41.1584006,0.0151612903 L41.1584006,5.71032258 C41.1584006,6.56467742 41.6718101,7.13419355 42.441997,7.13419355 C43.212184,7.13419355 43.7255935,6.56467742 43.7255935,5.71032258 L43.7255935,0.0151612903 L41.1584006,0.0151612903 Z" id="Shape"></path>
                                    <path d="M36.0243056,0.0151612903 L36.0243056,8.55806452 C36.0243056,9.41241935 36.5377151,9.98193548 37.3079021,9.98193548 C38.078089,9.98193548 38.5914985,9.41241935 38.5914985,8.55806452 L38.5914985,0.0151612903 L36.0243056,0.0151612903 Z" id="Shape"></path>
                                    <path d="M30.8900653,0.0151612903 L30.8900653,5.71032258 C30.8900653,6.56467742 31.4034748,7.13419355 32.1736617,7.13419355 C32.9438487,7.13419355 33.4572582,6.56467742 33.4572582,5.71032258 L33.4572582,0.0151612903 L30.8900653,0.0151612903 Z" id="Shape"></path>
                                    <path d="M25.7559703,0.0151612903 L25.7559703,8.55806452 C25.7559703,9.41241935 26.2693798,9.98193548 27.0395668,9.98193548 C27.8097537,9.98193548 28.3231632,9.41241935 28.3231632,8.55806452 L28.3231632,0.0151612903 L25.7559703,0.0151612903 Z" id="Shape"></path>
                                    <path d="M20.6218754,0.0151612903 L20.6218754,5.71032258 C20.6218754,6.56467742 21.1352849,7.13419355 21.9054718,7.13419355 C22.6756588,7.13419355 23.1890682,6.56467742 23.1890682,5.71032258 L23.1890682,0.0151612903 L20.6218754,0.0151612903 Z" id="Shape"></path>
                                    <path d="M15.487635,0.0151612903 L15.487635,8.55806452 C15.487635,9.41241935 16.0010445,9.98193548 16.7712315,9.98193548 C17.5414184,9.98193548 18.0548279,9.41241935 18.0548279,8.55806452 L18.0548279,0.0151612903 L15.487635,0.0151612903 Z" id="Shape"></path>
                                    <path d="M10.3535401,0.0151612903 L10.3535401,5.71032258 C10.3535401,6.56467742 10.8669496,7.13419355 11.6371365,7.13419355 C12.4073234,7.13419355 12.9207329,6.56467742 12.9207329,5.71032258 L12.9207329,0.0151612903 L10.3535401,0.0151612903 Z" id="Shape"></path>
                                    <path d="M5.2194451,0.0151612903 L5.2194451,8.55806452 C5.2194451,9.41241935 5.7328546,9.98193548 6.50304154,9.98193548 C7.27322849,9.98193548 7.78663798,9.41241935 7.78663798,8.55806452 L7.78663798,0.0151612903 L5.2194451,0.0151612903 Z" id="Shape"></path>
                                    <path d="M0.0852047478,0.0151612903 L0.0852047478,5.71032258 C0.0852047478,6.56467742 0.598614243,7.13419355 1.36880119,7.13419355 C2.13898813,7.13419355 2.65239763,6.56467742 2.65239763,5.71032258 L2.65239763,0.0151612903 L0.0852047478,0.0151612903 Z" id="Shape"></path>
                                </g>
                                <g id="Group" transform="translate(11.000000, 24.000000)" fill="#4A90E2">
                                    <path d="M2.08194138,5.50342623 L2.08194138,5.50342623 L4.83067931,2.11706557 C5.22331379,1.59609836 5.22331379,0.684442623 4.56882414,0.293606557 C4.04526207,-0.0970819672 3.12906552,-0.0970819672 2.73628276,0.423885246 L0.11862069,3.68011475 L2.08194138,5.50342623 Z" id="Shape"></path>
                                    <path d="M6.00873103,8.7595082 L6.00873103,8.7595082 L10.4590828,3.41955738 C10.9826448,2.89859016 10.8517172,1.98693443 10.3281552,1.59609836 C9.8045931,1.07513115 8.88839655,1.20540984 8.49561379,1.72637705 L4.04526207,7.06632787 L6.00873103,8.7595082 Z" id="Shape"></path>
                                    <path d="M9.93552069,12.2761475 L9.93552069,12.2761475 L12.8151862,8.88978689 C13.3387483,8.36881967 13.2078207,7.45716393 12.6842586,7.06632787 C12.1606966,6.54536066 11.2445,6.67563934 10.8517172,7.19660656 L7.97205172,10.5829672 L9.93552069,12.2761475 Z" id="Shape"></path>
                                    <path d="M16.4801207,8.49909836 L11.8988414,13.9693279 L13.8621621,15.6625082 L13.8621621,15.6625082 L18.4434414,10.1922787 C18.9670034,9.67131148 18.8360759,8.75965574 18.3125138,8.36881967 C17.7889517,7.84785246 17.0036828,7.97813115 16.4801207,8.49909836" id="Shape"></path>
                                    <path d="M18.8360759,13.8390492 L15.9564103,17.355541 L17.919731,19.0487213 L17.919731,19.0487213 L20.7993966,15.532082 C21.3229586,15.0111148 21.192031,14.099459 20.668469,13.708623 C20.1450552,13.1878033 19.3597862,13.318082 18.8360759,13.8390492" id="Shape"></path>
                                    <path d="M24.5954069,15.2716721 L19.8833483,20.7419016 L21.846669,22.435082 L21.846669,22.435082 L26.5587276,16.8345738 C27.0822897,16.3136066 26.9513621,15.4019508 26.4278,15.0111148 C25.9042379,14.6204262 24.9880414,14.6204262 24.5954069,15.2716721" id="Shape"></path>
                                    <path d="M26.8205828,20.611623 L23.8101379,24.2583934 L25.7734586,25.9515738 L25.7734586,25.9515738 L28.7839034,22.3048033 C29.3074655,21.7838361 29.1765379,20.8721803 28.6529759,20.4813443 C28.1294138,19.960377 27.3441448,19.960377 26.8205828,20.611623" id="Shape"></path>
                                    <path d="M32.5797655,21.9141148 L27.8677069,27.514623 L29.8310276,29.2078033 L29.8310276,29.2078033 L34.5430862,23.6072951 C35.0666483,23.0863279 34.9357207,22.1746721 34.4121586,21.7838361 C33.8887448,21.2628689 32.9724,21.3931475 32.5797655,21.9141148" id="Shape"></path>
                                    <path d="M34.935869,27.2540656 L31.7944966,30.9008361 L33.7578172,32.5940164 L33.7578172,32.5940164 L36.8991897,28.8169672 C37.4227517,28.296 37.2918241,27.3843443 36.7682621,26.9935082 C36.2447,26.6028197 35.3285034,26.7330984 34.935869,27.2540656" id="Shape"></path>
                                    <path d="M40.5641241,28.5564098 L35.7211379,34.2870492 L37.6844586,35.9802295 L37.6844586,35.9802295 L42.5274448,30.2495902 C43.0510069,29.728623 42.9200793,28.8169672 42.3965172,28.4261311 C41.8731034,28.0354426 41.0876862,28.0354426 40.5641241,28.5564098" id="Shape"></path>
                                </g>
                            </g>
                        </g>
                    </g>
                </g>
            </g>
        </g>
    </g>
</svg>