<?xml version="1.0" encoding="UTF-8"?>
<svg width="138px" height="138px" viewBox="0 0 138 138" version="1.1" xmlns="http://www.w3.org/2000/svg" xmlns:xlink="http://www.w3.org/1999/xlink">
    <!-- Generator: Sketch 47.1 (45422) - http://www.bohemiancoding.com/sketch -->
    <title>icon 4</title>
    <desc>Created with Sketch.</desc>
    <defs></defs>
    <g id="Page-1" stroke="none" stroke-width="1" fill="none" fill-rule="evenodd">
        <g id="Desktop-HD" transform="translate(-1123.000000, -4470.000000)">
            <g id="body" transform="translate(0.000000, 121.000000)">
                <g id="blok-замера" transform="translate(0.000000, 4174.000000)">
                    <g id="Group-4" transform="translate(1090.000000, 169.000000)">
                        <g id="icon-4" transform="translate(33.000000, 6.000000)">
                            <circle id="Oval-Copy-3" fill="#FFFFFF" cx="69" cy="69" r="69"></circle>
                            <g id="contract" transform="translate(30.000000, 27.000000)" fill-rule="nonzero">
                                <rect id="Rectangle-path" fill="#E0E0D3" x="8.20221739" y="0" width="67.694687" height="84.5904783"></rect>
                                <g id="Group" transform="translate(37.834783, 57.495652)" fill="#333E48">
                                    <path d="M24.8486957,16.3056348 C24.4921565,16.3056348 24.139913,16.1775913 23.8623478,15.9317478 C23.4184087,15.5385304 23.2505478,14.9192957 23.4352609,14.3555739 C23.5439739,14.0238174 23.6034522,13.682313 23.6247652,13.3404783 C22.6749304,14.7715913 21.4686783,15.8995304 20.0530957,16.2101391 C19.0679043,16.4264087 17.5842522,16.3431391 16.1128261,14.7172348 C13.658687,12.0058522 15.3323391,8.96453043 16.5541217,6.74367826 C17.9951478,4.12481739 17.9545043,3.7097913 17.176,3.19910435 C16.5769217,2.80588696 15.5525739,3.05437391 14.7991826,3.33193913 C10.0529826,5.08126087 3.57332174,12.2708609 3.0295913,14.1358348 C2.7996087,14.9242522 1.97385217,15.3769478 1.18576522,15.1469652 C0.397347826,14.9169826 -0.0553478261,14.0913913 0.174634783,13.3031391 C1.06053043,10.266113 8.39453043,2.5232 13.7710348,0.541582609 C15.8002348,-0.206521739 17.4950348,-0.148695652 18.807687,0.712747826 C20.2660609,1.66968696 20.8952087,3.04033043 20.6270609,4.67598261 C20.4321043,5.86472174 19.7852783,7.0404087 19.1597652,8.17726957 C17.4712435,11.2460174 17.6166348,11.9468696 18.3178174,12.7214087 C18.9405217,13.4093739 19.2982174,13.3308957 19.4155217,13.305287 C20.3088522,13.1091739 21.7393043,11.2889739 22.5867043,8.58271304 C22.7615043,8.02378261 23.2482348,7.61982609 23.8298,7.5506 C24.4120261,7.48104348 24.9793826,7.75993043 25.2807391,8.26202609 C25.3996957,8.46012174 26.0144696,9.53006957 26.3648957,11.0135565 C26.8027217,10.1745826 27.179087,9.22557391 27.5156348,8.303 C27.6770522,7.86087826 28.037887,7.52102609 28.4890957,7.38703478 C28.9403043,7.2532087 29.4285217,7.3406087 29.8047217,7.62296522 C30.4839304,8.13249565 32.7138696,9.98425217 32.8870174,12.4217043 C32.9494696,13.3 32.7594696,14.6111652 31.5003478,15.870287 C30.9196087,16.4510261 29.9780348,16.4510261 29.3974609,15.870287 C28.816887,15.2895478 28.8167217,14.3479739 29.3974609,13.7675652 C29.9026957,13.2623304 29.937887,12.8780348 29.9205391,12.632687 C29.8936087,12.2518609 29.7046,11.849887 29.4463652,11.4718696 C28.5224696,13.5152783 27.3248087,15.3019391 25.4781739,16.1656957 C25.2771043,16.2597043 25.0621565,16.3056348 24.8486957,16.3056348 Z" id="Shape"></path>
                                    <path d="M5.37022609,18.708887 C5.34626957,18.708887 5.32231304,18.7082261 5.2981913,18.7072348 C4.47805217,18.667913 3.8446087,17.9713565 3.88376522,17.1510522 C3.96323478,15.4859913 6.40349565,12.4040261 6.89171304,11.8031304 C8.34612174,10.0138261 10.5007217,7.82386957 12.5059652,7.5534087 C13.3206522,7.44370435 14.0684261,8.01453043 14.1782957,8.82822609 C14.2881652,9.64208696 13.7173391,10.390687 12.9034783,10.5005565 C12.3245565,10.5787043 10.9656435,11.5493565 9.34998261,13.4957826 C7.87393043,15.2741826 6.96407826,16.9050435 6.85024348,17.3526174 C6.783,18.119887 6.13881739,18.708887 5.37022609,18.708887 Z" id="Shape"></path>
                                </g>
                                <g id="Group" transform="translate(16.686957, 10.739130)" fill="#5C6670">
                                    <path d="M49.075513,2.98498261 L1.64903478,2.98498261 C0.827904348,2.98498261 0.162078261,2.31915652 0.162078261,1.49802609 C0.162078261,0.676895652 0.827904348,0.0110695652 1.64903478,0.0110695652 L49.075513,0.0110695652 C49.8966435,0.0110695652 50.5624696,0.676895652 50.5624696,1.49802609 C50.5624696,2.31915652 49.8966435,2.98498261 49.075513,2.98498261 Z" id="Shape"></path>
                                    <path d="M49.075513,9.93865217 L31.3098522,9.93865217 C30.4887217,9.93865217 29.8228957,9.27282609 29.8228957,8.45169565 C29.8228957,7.63056522 30.4887217,6.96473913 31.3098522,6.96473913 L49.075513,6.96473913 C49.8966435,6.96473913 50.5624696,7.63056522 50.5624696,8.45169565 C50.5624696,9.2729913 49.8966435,9.93865217 49.075513,9.93865217 Z" id="Shape"></path>
                                    <path d="M26.749687,9.93865217 L1.64903478,9.93865217 C0.827904348,9.93865217 0.162078261,9.27282609 0.162078261,8.45169565 C0.162078261,7.63056522 0.827904348,6.96473913 1.64903478,6.96473913 L26.7498522,6.96473913 C27.5709826,6.96473913 28.2368087,7.63056522 28.2368087,8.45169565 C28.2366435,9.2729913 27.5709826,9.93865217 26.749687,9.93865217 Z" id="Shape"></path>
                                    <path d="M49.075513,16.892487 L1.64903478,16.892487 C0.827904348,16.892487 0.162078261,16.2266609 0.162078261,15.4055304 C0.162078261,14.5844 0.827904348,13.9185739 1.64903478,13.9185739 L49.075513,13.9185739 C49.8966435,13.9185739 50.5624696,14.5844 50.5624696,15.4055304 C50.5624696,16.2266609 49.8966435,16.892487 49.075513,16.892487 Z" id="Shape"></path>
                                    <path d="M49.075513,23.8461565 L38.2489826,23.8461565 C37.4278522,23.8461565 36.7620261,23.1803304 36.7620261,22.3592 C36.7620261,21.5380696 37.4278522,20.8722435 38.2489826,20.8722435 L49.075513,20.8722435 C49.8966435,20.8722435 50.5624696,21.5380696 50.5624696,22.3592 C50.5624696,23.1803304 49.8966435,23.8461565 49.075513,23.8461565 Z" id="Shape"></path>
                                    <path d="M33.6891478,23.8461565 L1.64903478,23.8461565 C0.827904348,23.8461565 0.162078261,23.1803304 0.162078261,22.3592 C0.162078261,21.5380696 0.827904348,20.8722435 1.64903478,20.8722435 L33.6889826,20.8722435 C34.510113,20.8722435 35.1759391,21.5380696 35.1759391,22.3592 C35.1761043,23.1803304 34.5102783,23.8461565 33.6891478,23.8461565 Z" id="Shape"></path>
                                    <path d="M49.075513,30.7998261 L22.5863739,30.7998261 C21.7652435,30.7998261 21.0994174,30.134 21.0994174,29.3128696 C21.0994174,28.4917391 21.7652435,27.825913 22.5863739,27.825913 L49.075513,27.825913 C49.8966435,27.825913 50.5624696,28.4917391 50.5624696,29.3128696 C50.5624696,30.134 49.8966435,30.7998261 49.075513,30.7998261 Z" id="Shape"></path>
                                    <path d="M18.2246348,30.7998261 L1.6492,30.7998261 C0.828069565,30.7998261 0.162243478,30.134 0.162243478,29.3128696 C0.162243478,28.4917391 0.828069565,27.825913 1.6492,27.825913 L18.2246348,27.825913 C19.0457652,27.825913 19.7115913,28.4917391 19.7115913,29.3128696 C19.7115913,30.134 19.0459304,30.7998261 18.2246348,30.7998261 Z" id="Shape"></path>
                                    <path d="M37.0595826,37.7533304 L1.64903478,37.7533304 C0.827904348,37.7533304 0.162078261,37.0875043 0.162078261,36.2663739 C0.162078261,35.4452435 0.827904348,34.7794174 1.64903478,34.7794174 L37.0594174,34.7794174 C37.8805478,34.7794174 38.5463739,35.4452435 38.5463739,36.2663739 C38.5465391,37.0876696 37.880713,37.7533304 37.0595826,37.7533304 Z" id="Shape"></path>
                                </g>
                                <path d="M29.3303826,77.1783304 C28.949887,77.1783304 28.5692261,77.0332696 28.2789391,76.7428174 L25.256287,73.7198348 C24.6755478,73.1390957 24.6755478,72.1975217 25.256287,71.617113 C25.8370261,71.0363739 26.7786,71.0363739 27.3591739,71.617113 L30.3818261,74.6400957 C30.9625652,75.2208348 30.9625652,76.1624087 30.3818261,76.7428174 C30.0915391,77.0331043 29.7108783,77.1783304 29.3303826,77.1783304 Z" id="Shape" fill="#333E48"></path>
                                <path d="M27.3591739,71.6169478 C26.7786,71.0362087 25.8371913,71.0362087 25.256287,71.6169478 C24.6755478,72.197687 24.6755478,73.1389304 25.256287,73.7196696 L26.2566783,74.7200609 L28.3594,72.6173391 L27.3591739,71.6169478 Z" id="Shape" fill="#000000" opacity="0.3"></path>
                                <path d="M6.80447826,65.6831652 L0.537947826,59.4166348 C-0.0427913043,58.8358957 -0.0427913043,57.8946522 0.537947826,57.313913 L3.22702609,54.6248348 L5.32974783,56.7277217 L3.69227826,58.3653565 L8.90736522,63.5804435 L6.80447826,65.6831652 Z" id="Shape" fill="#333E48"></path>
                                <rect id="Rectangle-path" fill="#000000" opacity="0.2" transform="translate(3.634177, 56.318636) rotate(135.000000) translate(-3.634177, -56.318636) " x="2.7253253" y="54.8316933" width="1.81770431" height="2.97388452"></rect>
                                <rect id="Rectangle-path" fill="#0082CA" transform="translate(16.552671, 62.913961) rotate(135.000000) translate(-16.552671, -62.913961) " x="12.7629504" y="49.1181937" width="7.57944036" height="27.5915354"></rect>
                                <rect id="Rectangle-path" fill="#333E48" transform="translate(5.061691, 51.422484) rotate(135.000000) translate(-5.061691, -51.422484) " x="1.27197039" y="48.9672946" width="7.57944036" height="4.910379"></rect>
                                <g id="Group" transform="translate(11.895652, 58.321739)" fill="#FFFFFF">
                                    <rect id="Rectangle-path" transform="translate(7.682175, 7.617189) rotate(-135.000000) translate(-7.682175, -7.617189) " x="6.19523261" y="3.82746904" width="2.97388452" height="7.57944036"></rect>
                                    <rect id="Rectangle-path" transform="translate(3.885407, 3.819643) rotate(-135.000000) translate(-3.885407, -3.819643) " x="2.398465" y="0.0299227657" width="2.97388452" height="7.57944036"></rect>
                                </g>
                            </g>
                        </g>
                    </g>
                </g>
            </g>
        </g>
    </g>
</svg>