<?xml version="1.0" encoding="UTF-8"?>
<svg width="138px" height="138px" viewBox="0 0 138 138" version="1.1" xmlns="http://www.w3.org/2000/svg" xmlns:xlink="http://www.w3.org/1999/xlink">
    <!-- Generator: Sketch 47.1 (45422) - http://www.bohemiancoding.com/sketch -->
    <title>icon </title>
    <desc>Created with Sketch.</desc>
    <defs></defs>
    <g id="Page-1" stroke="none" stroke-width="1" fill="none" fill-rule="evenodd">
        <g id="Desktop-HD" transform="translate(-426.000000, -4471.000000)">
            <g id="body" transform="translate(0.000000, 121.000000)">
                <g id="blok-замера" transform="translate(0.000000, 4174.000000)">
                    <g id="Group-1" transform="translate(393.000000, 169.000000)">
                        <g id="icon-" transform="translate(33.000000, 7.000000)">
                            <circle id="Oval" fill="#FFFFFF" cx="69" cy="69" r="69"></circle>
                            <g id="phone" transform="translate(31.000000, 32.000000)" fill-rule="nonzero">
                                <g id="Group" transform="translate(0.000000, 6.000000)">
                                    <path d="M66.0796296,52.6206545 C63.6895556,48.1206 54.8734815,42.9732 54.8734815,42.9732 C52.8788148,41.8403455 50.4723704,41.7136364 49.334,43.7334545 C49.334,43.7334545 46.4704444,47.1558545 45.7413333,47.6476364 C42.4131111,49.8945273 39.3304444,49.8079636 36.2188148,46.7067273 L28.9868889,39.5018727 L21.754963,32.2970182 C18.6420741,29.1957818 18.5551852,26.1259091 20.8105185,22.8101455 C21.3041481,22.0837636 24.7394074,19.2309273 24.7394074,19.2309273 C26.7655556,18.0968182 26.6396296,15.6993818 25.5025185,13.7121818 C25.5025185,13.7121818 20.3357778,4.92910909 15.8188148,2.54798182 C13.8971852,1.53430909 11.5373333,1.88809091 9.99977778,3.41989091 L6.80503704,6.60267273 C-3.3257037,16.6954909 1.66222222,28.0917818 11.792963,38.1846 L21.0522963,47.4092727 L30.3116296,56.6339455 C40.4423704,66.7267636 51.8814815,71.6972727 62.0122222,61.6032 L65.206963,58.4204182 C66.742,56.8873636 67.0971111,54.5350909 66.0796296,52.6206545 Z" id="Shape" fill="#4A90E2"></path>
                                    <path d="M49.9346667,68.3852727 C48.6074074,68.3852727 47.254963,68.2259455 45.8748148,67.9085455 C40.6715556,66.7104545 35.1345926,63.2152909 29.4188148,57.5196545 L10.9014074,39.0690545 C-1.68237037,26.5336364 -3.40755556,15.0006 5.91222222,5.71445455 L9.10696296,2.53167273 C11.0474815,0.597163636 13.9765185,0.159327273 16.4056296,1.43770909 C21.1857778,3.95683636 26.3688889,12.7047818 26.5867407,13.0761273 C27.511037,14.6907273 27.8006667,16.3479818 27.409037,17.7568364 C27.1143704,18.8169273 26.4419259,19.6788 25.4622222,20.2609091 C23.9259259,21.5405455 22.1302222,23.1275455 21.8494074,23.5164545 C19.8308148,26.4822 20.0688148,28.8445091 22.644,31.4100545 L37.1078519,45.8197636 C39.6805185,48.3828 42.0491852,48.6211636 45.0348889,46.6088727 C45.418963,46.3316182 47.0119259,44.5438909 48.2988889,43.0120909 C48.8819259,42.0360545 49.7482963,41.3661273 50.8111111,41.0725636 C52.2265185,40.6798909 53.89,40.9696909 55.4968148,41.883 C55.8834074,42.1088182 64.6642222,47.2737818 67.1928148,52.0347818 L67.1928148,52.0347818 C68.4772593,54.4510364 68.0352593,57.3728727 66.0947407,59.3061273 L62.9,62.4889091 C58.9622963,66.4106182 54.6153333,68.3852727 49.9346667,68.3852727 Z M13.4954815,3.22292727 C12.540963,3.22292727 11.6015556,3.59427273 10.8888148,4.30434545 L7.69407407,7.48712727 C-0.576740741,15.7282364 1.10185185,25.7570727 12.6832593,37.2951273 L31.2006667,55.7444727 C42.7820741,67.2837818 52.8485926,68.9535818 61.1206667,60.7137273 L64.3154074,57.5309455 C65.4688889,56.3817818 65.7308148,54.6442364 64.968963,53.2077818 L64.968963,53.2077818 C63.1455556,49.7753455 56.6037037,45.4371273 54.2388148,44.0546182 C53.2616296,43.4988545 52.224,43.2906 51.4873333,43.4900727 C51.034,43.6167818 50.688963,43.8965455 50.4345926,44.3481818 L50.3036296,44.5376182 C49.4082963,45.6077455 47.2398519,48.1519636 46.4502963,48.6864 C42.4836296,51.3623455 38.7436296,50.9960182 35.3297778,47.5949455 L20.8634074,33.1839818 C17.4482963,29.7829091 17.0793333,26.0544 19.7665926,22.1050909 C20.3017778,21.3184909 22.8580741,19.1581636 23.9322222,18.2649273 L24.1211111,18.1344545 C24.5744444,17.8810364 24.8565185,17.5372909 24.9824444,17.0856545 C25.1877037,16.3479818 24.9723704,15.318 24.406963,14.3306727 C24.3654074,14.2591636 19.3762222,5.83990909 15.2282222,3.65323636 C14.6779259,3.36469091 14.0822963,3.22292727 13.4954815,3.22292727 Z" id="Shape" fill="#034F83"></path>
                                </g>
                                <path d="M49.770153,61 C49.7283065,61 49.6852292,60.9974285 49.6421519,60.9935712 C41.1559294,60.072972 35.600192,54.4400878 35.366344,54.2009378 C34.8826478,53.7033513 34.8777246,52.8907554 35.3528054,52.3854544 C35.8278862,51.877582 36.6069694,51.8711532 37.0931272,52.3687396 C37.1435892,52.4201698 42.2956309,57.6107549 49.8956925,58.4349226 C50.5713902,58.5094963 51.0624711,59.1408011 50.9935475,59.8479652 C50.9270854,60.5075566 50.3929273,61 49.770153,61 Z" id="Shape" fill="#034F83"></path>
                                <path d="M22.7482282,40 C22.4682613,40 22.1882944,39.9076933 21.954572,39.7181567 C21.6683558,39.4867745 14.9079043,33.9151394 14.0067607,25.3576887 C13.9355191,24.6807726 14.4354601,24.0764711 15.121629,24.0050872 C15.8115476,23.9447801 16.4227254,24.4272367 16.4952168,25.1029221 C17.2888731,32.6351525 23.4843913,37.7686383 23.5468839,37.8190993 C24.0780711,38.2535564 24.1530623,39.0277023 23.7143641,39.5520046 C23.4643936,39.8473862 23.1081857,40 22.7482282,40 Z" id="Shape" fill="#034F83"></path>
                                <g id="Group" transform="translate(33.000000, 0.000000)" fill="#4A90E2">
                                    <path d="M1.72252941,0.612228571 C1.02314706,0.612228571 0.457823529,1.17417143 0.457823529,1.86937143 C0.457823529,2.56457143 1.02314706,3.12651429 1.72252941,3.12651429 C23.0859412,3.12651429 40.4667941,20.4034286 40.4667941,41.6390857 C40.4667941,42.3342857 41.0321176,42.8962286 41.7315,42.8962286 C42.4308824,42.8962286 42.9962059,42.3342857 42.9962059,41.6390857 C42.9962059,19.0168 24.4809118,0.612228571 1.72252941,0.612228571 Z" id="Shape"></path>
                                    <path d="M1.72252941,9.44994286 C1.02314706,9.44994286 0.457823529,10.0118857 0.457823529,10.7070857 C0.457823529,11.4022857 1.02314706,11.9642286 1.72252941,11.9642286 C18.1839412,11.9642286 31.5746471,25.2761143 31.5746471,41.6378286 C31.5746471,42.3330286 32.1399706,42.8949714 32.8393529,42.8949714 C33.5387353,42.8949714 34.1040588,42.3330286 34.1040588,41.6378286 C34.1053235,23.8907429 19.5776471,9.44994286 1.72252941,9.44994286 Z" id="Shape"></path>
                                    <path d="M1.72252941,18.2876571 C1.02314706,18.2876571 0.457823529,18.8496 0.457823529,19.5448 C0.457823529,20.24 1.02314706,20.8019429 1.72252941,20.8019429 C13.2819412,20.8019429 22.6850294,30.1500571 22.6850294,41.6390857 C22.6850294,42.3342857 23.2503529,42.8962286 23.9497353,42.8962286 C24.6491176,42.8962286 25.2144412,42.3342857 25.2144412,41.6390857 C25.2144412,28.7634286 14.6756471,18.2876571 1.72252941,18.2876571 Z" id="Shape"></path>
                                </g>
                            </g>
                        </g>
                    </g>
                </g>
            </g>
        </g>
    </g>
</svg>