<?xml version="1.0" encoding="UTF-8"?>
<svg width="28px" height="28px" viewBox="0 0 28 28" version="1.1" xmlns="http://www.w3.org/2000/svg" xmlns:xlink="http://www.w3.org/1999/xlink">
    <!-- Generator: Sketch 47.1 (45422) - http://www.bohemiancoding.com/sketch -->
    <title>instagram-logo</title>
    <desc>Created with Sketch.</desc>
    <defs></defs>
    <g id="Page-1" stroke="none" stroke-width="1" fill="none" fill-rule="evenodd">
        <g id="Desktop-HD" transform="translate(-1482.000000, -5724.000000)" fill-rule="nonzero" fill="#4E8BB5">
            <g id="body" transform="translate(0.000000, 121.000000)">
                <g id="blok5-отзывы" transform="translate(0.000000, 4930.000000)">
                    <g id="3отзыв" transform="translate(1173.000000, 164.000000)">
                        <g id="instagram-logo" transform="translate(309.000000, 509.000000)">
                            <path d="M20.2728466,0 L7.72682211,0 C3.46625498,0 0,3.4664206 0,7.72698773 L0,20.2730123 C0,24.533745 3.46625498,28 7.72682211,28 L20.2728466,28 C24.533745,28 28,24.5335794 28,20.2730123 L28,7.72698773 C28.0001656,3.4664206 24.533745,0 20.2728466,0 Z M25.5158699,20.2730123 C25.5158699,23.1639044 23.1639044,25.5157043 20.2730123,25.5157043 L7.72682211,25.5157043 C4.83609563,25.5158699 2.4842957,23.1639044 2.4842957,20.2730123 L2.4842957,7.72698773 C2.4842957,4.83626125 4.83609563,2.4842957 7.72682211,2.4842957 L20.2728466,2.4842957 C23.1637387,2.4842957 25.5157043,4.83626125 25.5157043,7.72698773 L25.5157043,20.2730123 L25.5158699,20.2730123 Z" id="Shape"></path>
                            <path d="M14,7 C10.1401419,7 7,10.1402139 7,14.0001607 C7,17.8599467 10.1401419,21 14,21 C17.8598581,21 21,17.8599467 21,14.0001607 C21,10.1402139 17.8598581,7 14,7 Z M14,18.5894817 C11.4693433,18.5894817 9.41030232,16.5307148 9.41030232,14 C9.41030232,11.4691245 11.4691826,9.41019696 14,9.41019696 C16.5308174,9.41019696 18.5896977,11.4691245 18.5896977,14 C18.5896977,16.5307148 16.5306567,18.5894817 14,18.5894817 Z" id="Shape"></path>
                            <path d="M22,4 C21.4745455,4 20.9583636,4.21272727 20.5872727,4.58545455 C20.2143636,4.95636364 20,5.47272727 20,6 C20,6.52563636 20.2145455,7.04181818 20.5872727,7.41454545 C20.9581818,7.78545455 21.4745455,8 22,8 C22.5272727,8 23.0418182,7.78545455 23.4145455,7.41454545 C23.7872727,7.04181818 24,6.52545455 24,6 C24,5.47272727 23.7872727,4.95636364 23.4145455,4.58545455 C23.0436364,4.21272727 22.5272727,4 22,4 Z" id="Shape"></path>
                        </g>
                    </g>
                </g>
            </g>
        </g>
    </g>
</svg>