<?xml version="1.0" encoding="UTF-8"?>
<svg width="28px" height="28px" viewBox="0 0 28 28" version="1.1" xmlns="http://www.w3.org/2000/svg" xmlns:xlink="http://www.w3.org/1999/xlink">
    <!-- Generator: Sketch 47.1 (45422) - http://www.bohemiancoding.com/sketch -->
    <title>Shape</title>
    <desc>Created with Sketch.</desc>
    <defs></defs>
    <g id="Page-1" stroke="none" stroke-width="1" fill="none" fill-rule="evenodd">
        <g id="Desktop-HD" transform="translate(-1271.000000, -6760.000000)" stroke="#FFFFFF" fill-rule="nonzero" fill="#FFFFFF">
            <g id="footer" transform="translate(0.000000, 6655.000000)">
                <g id="telephone" transform="translate(1272.000000, 106.000000)">
                    <path d="M5.26878293,17.2830501 C7.84294677,20.3485288 10.9416776,22.7621218 14.4784489,24.4699544 C15.8250178,25.1056776 17.6258509,25.8599254 19.6321845,25.989225 C19.7565664,25.9946125 19.8755403,26 19.9999222,26 C21.3464911,26 22.4280725,25.5366763 23.3095614,24.5830916 C23.3149693,24.5777041 23.3257851,24.5669291 23.331193,24.5561542 C23.6448517,24.1790303 24.0017735,23.8396187 24.3749191,23.4786573 C24.6290908,23.2362205 24.8886703,22.9830087 25.1374341,22.7244094 C26.2893183,21.5283879 26.2893183,20.0091173 25.1266182,18.8508081 L21.876466,15.61293 C21.3248595,15.0418566 20.6650948,14.7401575 19.9728827,14.7401575 C19.2806705,14.7401575 18.615498,15.0418566 18.0476677,15.6075425 L16.1116369,17.5362619 C15.933176,17.4338997 15.7493071,17.3423125 15.5762541,17.2561127 C15.3599378,17.148363 15.1598452,17.0460008 14.9813843,16.9328637 C13.2184065,15.8176544 11.617666,14.3630336 10.0872283,12.4935765 C9.31389753,11.5184418 8.79473844,10.6995441 8.43240866,9.86448404 C8.94075194,9.40654787 9.41664777,8.92706175 9.87631988,8.4583506 C10.0385571,8.29133858 10.2062022,8.12432656 10.3738473,7.95731455 C10.9579013,7.37546622 11.2715599,6.70203067 11.2715599,6.01782014 C11.2715599,5.33360961 10.9633092,4.66017406 10.3738473,4.07832574 L8.762291,2.47285537 C8.57301424,2.28429341 8.39455331,2.10111894 8.21068446,1.91255698 C7.85376258,1.54620804 7.48061699,1.16908413 7.11287929,0.829672607 C6.55586485,0.285536676 5.90150808,0 5.20929595,0 C4.52249174,0 3.86272706,0.285536676 3.28408098,0.835060091 L1.26152368,2.84997928 C0.5260483,3.58267717 0.109639444,4.4716121 0.0231129288,5.50062163 C-0.0796373083,6.78823042 0.158310609,8.15665147 0.774812032,9.8106092 C1.7211958,12.3696643 3.1488833,14.745545 5.26878293,17.2830501 Z M1.34264229,5.61375881 C1.40753718,4.89722337 1.68334045,4.2992126 2.20249954,3.78201409 L4.21424102,1.77786987 C4.52789964,1.47617074 4.87400571,1.31993369 5.20929595,1.31993369 C5.53917829,1.31993369 5.87446854,1.47617074 6.18271925,1.78864484 C6.54504904,2.12266888 6.88574719,2.47285537 7.25348488,2.84459179 C7.43735373,3.03315375 7.62663048,3.22171571 7.81590723,3.41566515 L9.42746359,5.02113552 C9.76275383,5.35515955 9.93580686,5.69457107 9.93580686,6.02859511 C9.93580686,6.36261915 9.76275383,6.70203067 9.42746359,7.0360547 C9.25981846,7.20306672 9.09217334,7.37546622 8.92452821,7.54247824 C8.42159284,8.04890178 7.95110491,8.5283879 7.43194582,8.98632408 C7.42113001,8.99709905 7.4157221,9.00248653 7.40490628,9.0132615 C6.95604999,9.46042271 7.02635278,9.88603398 7.13451092,10.2092831 C7.13991883,10.2254455 7.14532674,10.2362205 7.15073465,10.2523829 C7.5671435,11.2490676 8.14578957,12.1972648 9.04891008,13.3286366 C10.6712822,15.3220058 12.3801809,16.8682138 14.2621326,18.0588479 C14.4946727,18.2096975 14.7434364,18.3282221 14.9759764,18.4467468 C15.1922927,18.5544965 15.3923852,18.6568587 15.5708462,18.7699959 C15.5924778,18.7807708 15.6087015,18.7915458 15.6303332,18.8023208 C15.8087941,18.893908 15.9818471,18.9370079 16.1549002,18.9370079 C16.5875327,18.9370079 16.8687439,18.6622462 16.9606783,18.5706589 L18.9832356,16.5557397 C19.2968943,16.2432656 19.6375924,16.0762536 19.9728827,16.0762536 C20.3838836,16.0762536 20.7191739,16.3294654 20.9300822,16.5557397 L24.1910503,19.7990054 C24.8399992,20.4455035 24.8345913,21.1458765 24.1748266,21.830087 C23.9476945,22.0725238 23.7097466,22.3041857 23.4555749,22.5466225 C23.0770214,22.9129714 22.6822442,23.2900953 22.3253223,23.7157066 C21.703413,24.3837547 20.9625297,24.6962288 20.0053301,24.6962288 C19.9133957,24.6962288 19.8160534,24.6908413 19.7241189,24.6854538 C17.9503254,24.5723166 16.3009137,23.8827186 15.0625029,23.2954828 C11.6987846,21.67385 8.74606728,19.3733941 6.2962853,16.4533775 C4.27913591,14.034397 2.9217512,11.7824285 2.0240386,9.36883547 C1.46702416,7.88727725 1.25611578,6.69664318 1.34264229,5.61375881 Z" id="Shape"></path>
                </g>
            </g>
        </g>
    </g>
</svg>