<?xml version="1.0" encoding="UTF-8"?>
<svg width="39px" height="23px" viewBox="0 0 39 23" version="1.1" xmlns="http://www.w3.org/2000/svg" xmlns:xlink="http://www.w3.org/1999/xlink">
    <!-- Generator: Sketch 47.1 (45422) - http://www.bohemiancoding.com/sketch -->
    <title>vk</title>
    <desc>Created with Sketch.</desc>
    <defs></defs>
    <g id="Page-1" stroke="none" stroke-width="1" fill="none" fill-rule="evenodd">
        <g id="Desktop-HD" transform="translate(-692.000000, -5730.000000)" stroke="#4E8BB5" stroke-width="2" fill-rule="nonzero">
            <g id="body" transform="translate(0.000000, 121.000000)">
                <g id="blok5-отзывы" transform="translate(0.000000, 4930.000000)">
                    <g id="1отзыв" transform="translate(393.000000, 167.000000)">
                        <g id="vk" transform="translate(300.000000, 513.000000)">
                            <path d="M31.8436781,13.3528367 C33.0710343,14.5546602 34.3663922,15.6853106 35.4672116,17.0083166 C35.9534857,17.5962548 36.4138165,18.2028923 36.7660382,18.8851963 C37.2651033,19.8550915 36.813083,20.9223965 35.9459701,20.9803061 L30.5556913,20.9778418 C29.1654488,21.0935161 28.0563912,20.5322496 27.123878,19.5788794 C26.3775929,18.8164876 25.6864463,18.0051009 24.9688505,17.2169796 C24.6746579,16.8948892 24.3667349,16.5917879 23.9989038,16.3521769 C23.2630972,15.8731725 22.624343,16.0197947 22.2038304,16.7895067 C21.7755854,17.5724097 21.6783884,18.4392417 21.6363299,19.311727 C21.5785899,20.5847234 21.1949327,20.9194249 19.9199536,20.9776969 C17.1951854,21.106562 14.609239,20.6931499 12.2069192,19.3145536 C10.0889638,18.0992493 8.44665955,16.3834873 7.01710471,14.4411603 C4.23394601,10.6590621 2.10247701,6.50305197 0.186864854,2.23064286 C-0.244342997,1.26806796 0.0710233617,0.7513752 1.13000105,0.733038369 C2.88843588,0.698756468 4.64665391,0.701220706 6.40718444,0.730574131 C7.12188959,0.741083381 7.59501139,1.15217629 7.87099309,1.82933443 C8.82236754,4.17550657 9.98649144,6.40767146 11.4476985,8.47668929 C11.8368479,9.02751899 12.2336574,9.57842117 12.7986286,9.96610381 C13.4237246,10.3953886 13.8996647,10.2531151 14.1937128,9.55472099 C14.3803021,9.11188291 14.4620344,8.63490787 14.5040928,8.16068698 C14.6434206,6.52899895 14.661776,4.90006506 14.4174466,3.27410276 C14.2674235,2.25934399 13.6975383,1.60240709 12.6879179,1.41041395 C12.1727376,1.31249672 12.2494113,1.12021367 12.4988715,0.825302344 C12.9321028,0.316654601 13.3396076,0 14.1519434,0 L20.243775,0 C21.2028096,0.189818814 21.4157758,0.62193022 21.5470821,1.58972351 L21.5522852,8.37630782 C21.5418068,8.7509445 21.7388746,9.86282324 22.4117381,10.1107691 C22.9502601,10.2873245 23.3052279,9.85521309 23.6283989,9.51275647 C25.0869322,7.96021396 26.1279158,6.12537124 27.0578997,4.22544363 C27.4706076,3.38999443 27.8255031,2.52243765 28.1694143,1.65553316 C28.4242223,1.01229453 28.8240669,0.695784886 29.5465045,0.709773062 L35.4095437,0.714991448 C35.5834144,0.714991448 35.7593084,0.717528164 35.9276869,0.746446723 C36.9156277,0.915319513 37.1864063,1.34156023 36.8812293,2.30913609 C36.4004474,3.82717926 35.4649713,5.09227564 34.5503077,6.36317022 C33.5725564,7.72002322 32.5268033,9.03049057 31.5572179,10.3953886 C30.6663296,11.6420032 30.7370775,12.2702389 31.8436781,13.3528367 L31.8436781,13.3528367 Z" id="Shape"></path>
                        </g>
                    </g>
                </g>
            </g>
        </g>
    </g>
</svg>