<?xml version="1.0" encoding="UTF-8"?>
<svg width="14px" height="14px" viewBox="0 0 14 14" version="1.1" xmlns="http://www.w3.org/2000/svg" xmlns:xlink="http://www.w3.org/1999/xlink">
    <!-- Generator: Sketch 47.1 (45422) - http://www.bohemiancoding.com/sketch -->
    <title>Combined Shape</title>
    <desc>Created with Sketch.</desc>
    <defs></defs>
    <g id="Page-1" stroke="none" stroke-width="1" fill="none" fill-rule="evenodd" stroke-linecap="round">
        <g id="Artboard-3" transform="translate(-720.000000, -1060.000000)" stroke="#034F83" stroke-width="2">
            <g id="таблица" transform="translate(376.000000, 973.000000)">
                <path d="M350.871115,93.2251481 L345.969129,88.4160143 C345.747427,88.198512 345.387978,88.198512 345.166276,88.4160143 C344.944575,88.6335166 344.944575,88.9861575 345.166276,89.2036598 L350.068262,94.0127936 L345.192357,98.7963402 C344.970656,99.0138425 344.970656,99.3664834 345.192357,99.5839857 C345.414059,99.801488 345.773509,99.801488 345.99521,99.5839857 L350.871115,94.800439 L356.00479,99.8368733 C356.226491,100.054376 356.585941,100.054376 356.807643,99.8368733 C357.029344,99.619371 357.029344,99.2667301 356.807643,99.0492278 L351.673968,94.0127936 L356.833724,88.9507722 C357.055425,88.7332699 357.055425,88.380629 356.833724,88.1631267 C356.612022,87.9456244 356.252573,87.9456244 356.030871,88.1631267 L350.871115,93.2251481 Z" id="Combined-Shape"></path>
            </g>
        </g>
    </g>
</svg>